HIERARCHY
ROOT SpineBase
{
  OFFSET 0.000000 0.000000 0.000000
  CHANNELS 6 Xposition Yposition Zposition Zrotation Xrotation Yrotation
  JOINT SpineMid
  {
    OFFSET 0.000000 32.079334 0.000000
    CHANNELS 3 Zrotation Xrotation Yrotation
    JOINT SpineShoulder
    {
      OFFSET 0.053490 23.804499 -0.727959
      CHANNELS 3 Zrotation Xrotation Yrotation
      JOINT Neck
      {
        OFFSET 0.041374 7.869367 -0.564036
        CHANNELS 3 Zrotation Xrotation Yrotation
        JOINT Head
        {
          OFFSET -5.197839 14.247263 0.183704
          CHANNELS 3 Zrotation Xrotation Yrotation
          End Site
          {
            OFFSET 0 0 0
          }
        }
      }
      JOINT ShoulderLeft
      {
        OFFSET -16.762796 -6.484792 7.998000
        CHANNELS 3 Zrotation Xrotation Yrotation
        JOINT ElbowLeft
        {
          OFFSET -0.977430 -29.271925 3.619140
          CHANNELS 3 Zrotation Xrotation Yrotation
          JOINT WristLeft
          {
            OFFSET 0.647605 -25.002231 -4.288932
            CHANNELS 3 Zrotation Xrotation Yrotation
            JOINT HandLeft
            {
              OFFSET 0.255092 -4.139041 -1.268725
              CHANNELS 3 Zrotation Xrotation Yrotation
              JOINT HandTipLeft
              {
                OFFSET 0.280984 -5.295668 -0.969447
                CHANNELS 3 Zrotation Xrotation Yrotation
                End Site
                {
                  OFFSET 0 0 0
                }
              }
              JOINT ThumbLeft
              {
                OFFSET -1.604395 -1.402780 -1.254676
                CHANNELS 3 Zrotation Xrotation Yrotation
                End Site
                {
                  OFFSET 0 0 0
                }
              }
            }
          }
        }
      }
      JOINT ShoulderRight
      {
        OFFSET 14.377961 -3.529260 -9.411059
        CHANNELS 3 Zrotation Xrotation Yrotation
        JOINT ElbowRight
        {
          OFFSET 7.474373 -26.858329 -1.504558
          CHANNELS 3 Zrotation Xrotation Yrotation
          JOINT WristRight
          {
            OFFSET -0.889331 -23.003878 -5.132682
            CHANNELS 3 Zrotation Xrotation Yrotation
            JOINT HandRight
            {
              OFFSET -2.051400 -6.789420 -0.404738
              CHANNELS 3 Zrotation Xrotation Yrotation
              JOINT HandTipRight
              {
                OFFSET -0.009027 -7.015219 -0.378512
                CHANNELS 3 Zrotation Xrotation Yrotation
                End Site
                {
                  OFFSET 0 0 0
                }
              }
              JOINT ThumbRight
              {
                OFFSET 3.328914 -1.009477 -1.821644
                CHANNELS 3 Zrotation Xrotation Yrotation
                End Site
                {
                  OFFSET 0 0 0
                }
              }
            }
          }
        }
      }
    }
  }
  JOINT HipLeft
  {
    OFFSET -6.628283 0.190802 -0.482311
    CHANNELS 3 Zrotation Xrotation Yrotation
    JOINT KneeLeft
    {
      OFFSET 4.666594 -34.699253 3.198545
      CHANNELS 3 Zrotation Xrotation Yrotation
      JOINT AnkleLeft
      {
        OFFSET 8.140643 -36.437804 6.352798
        CHANNELS 3 Zrotation Xrotation Yrotation
        JOINT FootLeft
        {
          OFFSET 0.887169 -8.429865 -6.578386
          CHANNELS 3 Zrotation Xrotation Yrotation
          End Site
          {
            OFFSET 0 0 0
          }
        }
      }
    }
  }
  JOINT HipRight
  {
    OFFSET 7.160187 1.602727 -6.737245
    CHANNELS 3 Zrotation Xrotation Yrotation
    JOINT KneeRight
    {
      OFFSET 8.412264 -31.340723 -0.584331
      CHANNELS 3 Zrotation Xrotation Yrotation
      JOINT AnkleRight
      {
        OFFSET 4.028840 -40.690155 9.106850
        CHANNELS 3 Zrotation Xrotation Yrotation
        JOINT FootRight
        {
          OFFSET -3.213920 -9.356173 -1.370656
          CHANNELS 3 Zrotation Xrotation Yrotation
          End Site
          {
            OFFSET 0 0 0
          }
        }
      }
    }
  }
}
MOTION
Frames: 5
Frame Time: 0.033333
-20.971423 84.010940 339.708314 1.236029 3.718853 23.934832 -0.231456 -0.061847 -23.955456 0.098833 -0.279341 0.046888 -1.948094 -3.622943 -0.259078 0.000000 0.000000 0.000000 -112.036014 16.565808 -1.927149 -70.391888 16.962972 -167.153763 13.000792 8.762616 23.637174 -12.746343 3.716940 -22.262515 0.000000 0.000000 0.000000 0.000000 0.000000 0.000000 116.755417 71.405516 -69.423557 94.874584 74.932357 127.068388 -30.240357 -7.294699 -105.195342 -33.700407 -0.337340 -14.237940 0.000000 0.000000 0.000000 0.000000 0.000000 0.000000 -7.537084 -1.688331 -24.818953 4.948720 0.948592 0.540305 2.241097 1.550801 -1.595972 0.000000 0.000000 0.000000 -9.296987 -1.742782 -24.644114 5.698299 2.210124 0.127956 -5.716446 58.339737 -15.752448 0.000000 0.000000 0.000000
-20.971240 83.795036 339.800706 1.222420 3.621175 23.284995 -0.158962 -0.026364 -23.301754 0.093107 -0.244365 0.047446 -2.380318 -3.304148 -0.161483 0.000000 0.000000 0.000000 -113.378882 14.329599 -5.161459 -72.628031 12.473409 -156.306747 23.159448 11.229752 44.969445 -13.971155 9.839535 -26.611324 0.000000 0.000000 0.000000 0.000000 0.000000 0.000000 118.893129 70.454536 -70.571462 96.343613 71.643323 122.670609 -33.311116 -7.480678 -113.823730 -34.683478 -1.426131 -59.759316 0.000000 0.000000 0.000000 0.000000 0.000000 0.000000 -7.499202 -1.725162 -24.173033 4.964330 0.994894 0.545819 5.033602 -2.166103 -4.103168 0.000000 0.000000 0.000000 -8.967866 -1.549769 -23.886335 5.570066 1.884599 0.065182 -5.826498 58.321420 -15.679817 0.000000 0.000000 0.000000
-20.990129 83.687676 339.875356 1.215756 3.541843 22.824229 -0.112360 -0.003750 -22.838291 0.094350 -0.236170 0.048698 -2.701410 -2.969287 -0.061456 0.000000 0.000000 0.000000 -113.541247 12.327276 -7.967298 -74.760039 8.967169 -148.531996 32.582063 17.768085 71.957820 -10.224302 15.130973 -26.933435 0.000000 0.000000 0.000000 0.000000 0.000000 0.000000 116.174173 69.820273 -67.488993 100.614355 69.747265 116.852643 -34.363293 -7.286402 -117.123254 -32.607762 -1.642904 -68.191066 0.000000 0.000000 0.000000 0.000000 0.000000 0.000000 -7.424325 -1.755999 -23.707478 4.926325 1.022643 0.545218 2.143008 2.558050 -1.423445 0.000000 0.000000 0.000000 -8.701973 -1.394383 -23.342596 5.445854 1.598457 0.012753 -5.932047 58.337819 -15.598899 0.000000 0.000000 0.000000
-21.010328 83.619164 339.945426 1.208255 3.452564 22.471182 -0.065974 0.018824 -22.482446 0.091961 -0.240396 0.049773 -2.906617 -2.638882 0.035651 0.000000 0.000000 0.000000 -114.239523 10.619478 -10.400125 -76.230577 5.384358 -140.559801 34.431180 18.489913 78.087661 -0.136920 11.621829 8.499196 0.000000 0.000000 0.000000 0.000000 0.000000 0.000000 115.469119 68.852094 -66.009042 100.543938 68.089531 116.634267 -32.312858 -8.049324 -115.090118 -30.914484 -2.035161 -76.476625 0.000000 0.000000 0.000000 0.000000 0.000000 0.000000 -7.347804 -1.756312 -23.346619 4.890732 1.043910 0.544238 1.132928 6.108439 -0.288785 0.000000 0.000000 0.000000 -8.440691 -1.239790 -22.914450 5.295677 1.316766 -0.039382 -6.076365 58.366526 -15.469129 0.000000 0.000000 0.000000
-21.053820 83.579689 340.020415 1.178103 3.353690 22.232907 -0.008543 0.049150 -22.241027 0.092218 -0.246409 0.050505 -3.064607 -2.371813 0.112143 0.000000 0.000000 0.000000 -114.931278 9.420904 -12.144777 -76.362785 3.407774 -137.254179 35.812776 21.232478 85.094293 7.615307 11.695304 41.699659 0.000000 0.000000 0.000000 0.000000 0.000000 0.000000 115.117756 68.070516 -65.022718 99.175689 67.517708 118.877426 -30.535911 -8.781495 -112.677611 -30.398388 -2.684859 -82.750359 0.000000 0.000000 0.000000 0.000000 0.000000 0.000000 -7.217588 -1.741988 -23.092649 4.824638 1.052807 0.539628 0.899132 8.433128 0.114479 0.000000 0.000000 0.000000 -8.147667 -1.109488 -22.611582 5.123393 1.086422 -0.080100 -6.271781 58.370432 -15.309260 0.000000 0.000000 0.000000
